<?xml version="1.0" standalone="no"?>
<!DOCTYPE svg PUBLIC "-//W3C//DTD SVG 20010904//EN"
 "http://www.w3.org/TR/2001/REC-SVG-20010904/DTD/svg10.dtd">
<svg version="1.0" xmlns="http://www.w3.org/2000/svg"
 width="1136.000000pt" height="1136.000000pt" viewBox="0 0 1136.000000 1136.000000"
 preserveAspectRatio="xMidYMid meet">
<metadata>
Created by potrace 1.14, written by Peter Selinger 2001-2017
</metadata>
<g transform="translate(0.000000,1136.000000) scale(0.100000,-0.100000)"
fill="#000000" stroke="none">
<path d="M4886 11295 c22 -54 144 -298 155 -309 31 -33 -10 -22 -56 15 -34 27
-265 169 -275 169 -6 0 -10 5 -10 12 0 6 -3 8 -7 4 -4 -3 9 -19 28 -35 19 -16
46 -39 60 -52 36 -34 118 -101 143 -118 12 -8 23 -18 26 -21 3 -4 35 -29 73
-57 50 -38 63 -52 51 -57 -9 -3 -20 -4 -25 -1 -5 3 -17 2 -26 -3 -10 -5 -38
-12 -63 -15 -25 -4 -57 -9 -72 -12 -16 -3 -38 -7 -50 -9 -13 -2 -63 -14 -113
-25 -49 -12 -101 -24 -115 -27 -14 -2 -32 -7 -40 -9 -11 -4 -16 3 -18 23 -3
28 -4 37 -16 87 -22 92 -66 235 -93 295 -32 74 -58 125 -65 128 -5 2 -8 13 -8
23 0 11 -4 18 -9 14 -6 -3 -6 -16 -1 -33 5 -15 11 -43 14 -62 7 -46 21 -107
36 -150 6 -19 13 -46 16 -60 3 -14 9 -29 15 -35 5 -5 9 -15 9 -22 0 -7 10 -35
23 -61 33 -69 38 -82 27 -82 -6 0 -10 6 -10 13 0 6 -35 46 -78 88 -80 78 -182
156 -182 140 0 -18 102 -146 161 -201 32 -31 77 -67 99 -80 35 -22 48 -42 27
-41 -16 0 -318 -106 -392 -138 -62 -27 -92 -39 -112 -46 -13 -3 -23 -11 -23
-16 0 -5 -8 -9 -18 -9 -10 0 -23 -5 -30 -12 -7 -7 -12 -8 -12 -2 0 5 -4 4 -8
-2 -4 -5 -36 -25 -72 -42 -36 -18 -72 -37 -80 -42 -47 -30 -151 -90 -156 -90
-3 0 -12 -7 -20 -15 -9 -8 -22 -15 -29 -15 -14 0 -18 3 -55 50 -67 82 -300
324 -300 310 0 -4 9 -19 20 -33 11 -14 20 -30 20 -36 0 -6 4 -11 8 -11 5 0 15
-12 23 -27 8 -16 22 -35 31 -44 10 -9 18 -20 18 -23 0 -7 78 -112 103 -138 48
-51 50 -50 -79 -43 -198 12 -215 12 -207 4 7 -7 44 -18 123 -35 29 -7 61 -12
110 -19 19 -3 44 -7 55 -9 11 -3 23 -5 28 -5 13 -2 7 -21 -7 -21 -8 0 -16 -3
-18 -7 -1 -5 -22 -23 -45 -41 -43 -33 -93 -43 -141 -28 -13 5 -34 10 -45 11
-53 9 -93 16 -104 20 -6 2 -19 -5 -28 -15 -13 -15 -14 -23 -5 -39 6 -12 14
-21 18 -22 19 -2 44 -8 76 -19 20 -6 40 -9 46 -5 5 3 10 2 10 -4 0 -6 7 -8 15
-5 8 4 15 1 15 -5 0 -6 -3 -11 -8 -11 -12 0 -263 -248 -333 -330 -129 -150
-279 -349 -279 -370 0 -16 -18 -12 -84 16 -91 39 -98 42 -136 53 -35 10 -78
18 -135 26 -25 4 -27 3 -12 -6 11 -6 24 -12 30 -13 31 -7 238 -108 272 -132
16 -12 16 -15 -6 -51 -13 -21 -25 -40 -28 -43 -4 -3 -22 -35 -41 -73 -19 -37
-44 -84 -55 -105 l-20 -37 -180 0 c-184 0 -281 -8 -380 -28 -16 -4 -46 -9 -65
-12 -58 -10 -62 -27 -5 -19 87 12 577 5 590 -8 4 -4 0 -24 -10 -45 -10 -21
-18 -40 -18 -43 1 -3 -4 -14 -10 -25 -6 -11 -12 -22 -12 -25 -10 -39 -19 -60
-28 -60 -6 0 -8 -3 -5 -6 4 -3 -7 -45 -23 -92 -34 -99 -69 -217 -73 -247 -2
-11 -6 -33 -10 -50 -3 -16 -8 -40 -11 -53 -2 -13 -6 -31 -9 -40 -3 -9 -8 -39
-12 -67 -3 -27 -8 -59 -9 -70 -2 -11 -4 -23 -4 -27 -1 -9 -41 3 -41 12 0 5 -9
12 -20 15 -11 3 -26 12 -33 18 -7 7 -35 28 -62 47 -85 59 -171 140 -250 235
-27 33 -53 65 -58 70 -22 25 31 -87 68 -146 61 -95 204 -229 244 -229 6 0 11
-4 11 -10 0 -5 6 -10 13 -10 8 0 27 -6 43 -14 16 -8 41 -19 56 -25 24 -9 26
-13 21 -53 -7 -63 -10 -68 -35 -64 -13 3 -23 5 -23 6 0 1 -11 3 -25 5 -34 3
-207 34 -252 44 -20 5 -39 6 -42 3 -3 -2 -12 0 -19 6 -8 7 -16 10 -19 7 -3 -3
-29 0 -59 5 -30 6 -72 13 -94 16 -22 3 -56 10 -75 15 -56 14 -55 -5 2 -26 29
-11 56 -18 61 -17 4 1 7 -3 7 -8 0 -5 3 -9 8 -8 4 1 32 -6 63 -16 54 -16 81
-23 124 -32 11 -2 43 -8 70 -14 54 -12 126 -20 220 -25 33 -1 65 -3 70 -4 9
-1 11 -89 4 -191 -2 -36 17 -283 26 -330 3 -14 7 -41 9 -60 7 -56 18 -114 22
-121 2 -4 6 -24 9 -45 4 -22 13 -63 21 -93 8 -29 13 -56 10 -59 -3 -3 -6 0 -6
6 0 7 -4 12 -10 12 -5 0 -22 12 -38 28 -16 15 -42 38 -59 52 -59 48 -177 156
-279 256 -57 55 -104 98 -104 94 0 -14 109 -163 170 -232 87 -99 264 -245 316
-262 18 -5 61 -63 56 -76 -3 -10 11 -55 21 -67 5 -7 6 -13 3 -13 -4 0 -2 -8 3
-19 9 -15 7 -19 -12 -23 -29 -5 -294 -2 -382 5 l-70 6 45 -22 c114 -56 308
-71 430 -32 11 4 21 -10 34 -47 l18 -51 -23 -18 c-25 -19 -166 -90 -183 -93
-6 -1 -18 -6 -26 -11 -8 -5 -24 -11 -35 -13 -29 -5 -50 -10 -50 -12 0 -1 -10
-3 -22 -6 -13 -2 -33 -6 -45 -8 -13 -3 -43 -5 -68 -6 l-45 -1 30 -14 c38 -17
217 -14 260 5 35 15 32 14 68 24 15 5 27 12 27 17 0 5 6 9 14 9 8 0 25 9 38
20 81 70 83 71 87 54 5 -25 126 -260 171 -333 22 -34 40 -66 40 -70 0 -5 9
-16 20 -26 11 -10 20 -24 20 -32 0 -7 5 -13 10 -13 6 0 10 -4 10 -10 0 -5 6
-18 14 -27 8 -10 38 -49 67 -88 29 -38 58 -77 66 -85 7 -8 39 -44 71 -79 99
-112 213 -222 322 -311 62 -50 57 -47 123 -97 26 -20 44 -39 39 -42 -5 -3 -11
-14 -15 -24 -5 -13 -13 -17 -28 -12 -83 27 -229 1 -325 -58 -32 -19 -77 -38
-99 -41 -68 -10 -110 -17 -180 -31 -11 -2 -47 -9 -80 -14 -33 -6 -71 -13 -85
-16 -14 -3 -38 -7 -55 -10 -59 -10 -130 -28 -140 -35 -5 -4 -21 -11 -33 -15
-47 -14 -128 -71 -184 -129 -32 -33 -58 -63 -58 -67 0 -4 -6 -14 -12 -21 -28
-29 -104 -229 -122 -318 -53 -266 -56 -294 -57 -500 0 -123 5 -211 16 -280 3
-19 8 -53 11 -75 3 -22 9 -53 14 -70 4 -16 11 -47 15 -69 3 -21 11 -50 17 -65
6 -14 12 -28 13 -31 33 -97 115 -173 270 -251 l120 -60 1 -137 c2 -164 9 -319
20 -422 5 -41 8 -87 9 -102 0 -16 2 -28 5 -28 3 0 6 -17 7 -38 3 -55 10 -112
24 -184 7 -34 13 -76 14 -93 1 -16 5 -39 8 -50 3 -11 9 -36 12 -55 3 -19 8
-43 11 -53 3 -11 7 -29 9 -40 4 -23 41 -187 51 -222 3 -11 7 -30 10 -43 7 -36
61 -250 80 -317 9 -33 18 -67 19 -75 2 -8 4 -16 5 -17 2 -2 3 -6 4 -10 15 -67
116 -326 145 -373 6 -8 22 -37 36 -64 15 -26 31 -53 36 -60 5 -6 37 -49 72
-96 71 -98 225 -256 312 -320 33 -25 68 -53 79 -62 56 -51 325 -161 446 -182
14 -3 25 -5 25 -6 0 -1 11 -3 25 -5 14 -2 63 -9 110 -16 47 -6 115 -12 152
-13 38 -1 68 -4 68 -7 0 -4 15 -7 33 -7 17 1 84 -2 147 -6 63 -3 210 -9 325
-13 287 -11 2452 -10 2545 0 41 5 91 10 110 13 19 2 55 6 80 8 233 24 552 105
716 182 196 92 378 251 506 443 21 31 42 61 48 68 5 7 10 14 10 16 0 3 24 56
54 118 64 137 67 144 80 192 5 15 13 27 19 27 6 0 8 3 4 6 -3 3 3 26 13 50 11
24 20 48 21 52 1 4 5 17 10 30 5 13 9 29 9 37 0 8 4 16 9 19 5 3 12 23 16 43
4 21 10 42 13 48 4 5 7 15 8 20 1 6 19 70 39 142 20 73 33 137 30 143 -3 5 -1
10 4 10 6 0 10 3 9 8 -1 4 4 32 10 62 6 30 14 67 16 83 3 15 7 35 10 45 3 9 7
40 10 67 3 28 8 61 11 75 4 25 11 82 20 190 3 30 7 75 10 100 10 94 18 363 19
652 l1 299 40 22 c22 12 42 25 43 30 2 4 10 7 18 7 8 0 14 5 14 10 0 6 5 10
10 10 12 0 103 90 145 145 62 80 134 280 131 368 -1 20 1 37 4 37 12 0 -1 344
-15 410 -3 14 -8 41 -11 60 -4 19 -15 71 -25 115 -10 44 -20 91 -23 105 -16
96 -66 228 -88 238 -5 2 -8 8 -8 13 0 11 -24 40 -70 86 -88 88 -193 134 -360
158 -36 5 -99 16 -124 21 -11 2 -37 7 -56 10 -19 3 -46 7 -60 9 -14 3 -43 7
-65 10 -22 3 -65 10 -95 15 -30 5 -71 12 -90 14 -77 10 -126 18 -150 22 -27 6
-62 10 -99 12 -23 2 -24 3 -6 22 10 11 24 20 31 20 7 0 14 3 16 8 2 4 41 37
88 73 169 131 329 288 469 459 11 14 25 30 30 36 6 7 38 52 73 100 34 49 66
91 70 92 5 2 8 7 8 12 0 8 59 109 70 120 3 3 17 28 32 55 62 118 88 170 88
180 0 5 9 21 19 34 l18 24 19 -32 c17 -30 109 -99 119 -90 2 3 -5 23 -15 46
-18 41 -62 92 -95 110 -14 8 -14 14 5 59 37 86 114 315 135 404 2 8 4 16 5 18
2 1 3 8 4 15 1 7 12 11 26 9 44 -5 164 -4 185 1 11 3 31 10 45 15 24 9 24 10
-15 21 -54 14 -142 20 -183 10 -17 -4 -34 -3 -37 1 -3 5 0 31 6 59 9 45 14 50
42 57 18 3 38 11 46 18 8 6 17 10 20 9 7 -3 64 15 111 35 19 9 37 16 40 17 17
4 106 50 111 58 3 5 10 9 15 9 22 2 44 11 44 18 0 4 14 13 30 20 17 7 30 16
30 21 0 5 6 9 13 9 6 0 23 9 37 20 l25 19 -60 -15 c-33 -8 -67 -18 -75 -22 -8
-4 -41 -17 -72 -27 -32 -11 -58 -23 -58 -27 0 -4 -8 -8 -17 -8 -10 0 -33 -9
-50 -20 -18 -11 -33 -17 -33 -14 0 3 -7 -2 -16 -10 -8 -9 -22 -16 -30 -16 -8
0 -14 -5 -14 -12 0 -6 -3 -8 -6 -5 -4 4 -23 -6 -43 -22 -20 -15 -45 -33 -57
-39 -21 -11 -21 -10 -8 56 7 37 16 94 19 127 4 33 9 69 11 80 5 23 18 230 17
261 -1 19 6 22 81 27 74 6 115 11 171 22 53 10 169 47 202 65 l36 19 -89 -5
c-98 -5 -221 -26 -299 -52 -27 -9 -54 -17 -60 -18 -5 -1 -17 -5 -26 -9 -14 -5
-16 4 -16 62 0 62 -8 175 -19 262 l-3 34 22 -21 c40 -37 153 -72 180 -55 12 7
-32 43 -82 65 -48 22 -63 26 -102 27 -21 1 -27 6 -27 24 0 18 -19 124 -36 202
-13 60 -30 125 -43 165 -8 25 -17 54 -19 65 -7 26 -10 37 -17 55 -28 76 -41
116 -39 123 1 4 -3 7 -10 7 -6 0 -9 3 -6 6 16 16 -224 500 -254 512 -4 2 -6 8
-2 13 3 5 0 9 -5 9 -6 0 -11 5 -11 12 0 6 -7 20 -17 30 -21 23 -18 26 42 33
66 8 104 15 170 29 63 14 169 53 173 65 3 9 0 11 -7 6 -7 -4 -49 -8 -94 -10
-45 -2 -111 -9 -147 -15 -36 -7 -72 -14 -80 -15 -8 -1 -35 -8 -59 -16 -35 -10
-45 -11 -49 -1 -2 7 -10 19 -18 26 -8 8 -14 17 -14 21 0 6 -5 13 -45 58 -14
15 -25 31 -25 35 0 4 -10 18 -23 32 -13 14 -31 37 -40 51 -16 23 -16 28 -2 39
8 7 15 16 15 21 0 5 16 32 35 59 19 28 33 50 30 50 -3 0 10 24 28 53 52 84
177 354 177 383 0 11 -48 -52 -85 -111 -21 -33 -43 -63 -49 -67 -6 -4 -7 -8
-3 -8 4 0 -5 -19 -21 -42 -29 -43 -146 -276 -157 -312 -5 -19 -1 -24 -144 134
-23 25 -36 47 -30 49 6 2 20 11 30 20 9 9 24 21 31 26 87 65 270 243 338 329
14 18 14 19 -6 8 -11 -6 -26 -18 -34 -26 -7 -9 -19 -16 -26 -16 -8 0 -14 -4
-14 -8 0 -4 -15 -16 -32 -27 -18 -10 -38 -24 -45 -29 -6 -6 -26 -22 -44 -36
-41 -31 -129 -108 -189 -167 -24 -23 -48 -43 -52 -43 -4 0 -27 19 -51 43 -95
92 -225 200 -322 267 -27 19 -52 37 -55 40 -9 10 -160 110 -166 110 -3 0 -30
16 -60 35 -30 19 -61 35 -69 35 -8 0 -15 4 -15 8 0 5 -27 21 -60 37 l-60 29
32 20 c36 22 167 115 184 131 6 5 30 26 54 45 24 19 78 68 119 108 75 72 75
73 31 50 -25 -13 -46 -26 -48 -30 -2 -5 -10 -8 -18 -8 -8 0 -14 -4 -14 -10 0
-5 -5 -10 -10 -10 -10 0 -140 -84 -179 -115 -9 -8 -55 -45 -103 -84 -48 -39
-90 -71 -95 -71 -4 1 -25 9 -46 19 l-37 17 24 29 c14 16 23 32 21 36 -3 4 2
12 10 19 8 7 12 16 9 21 -3 5 0 9 5 9 6 0 11 6 11 13 0 6 7 25 15 41 8 15 17
38 20 50 2 11 11 39 19 61 8 22 15 49 16 59 0 17 -2 17 -23 -5 -13 -13 -24
-26 -23 -29 0 -3 -14 -27 -32 -54 -18 -28 -32 -56 -32 -63 0 -7 -5 -13 -10
-13 -6 0 -9 -3 -8 -7 1 -5 -5 -24 -14 -43 -8 -19 -20 -52 -27 -72 -7 -21 -14
-38 -15 -38 -2 0 -36 14 -77 31 -68 28 -323 116 -359 124 -8 1 -35 8 -60 15
-25 7 -49 13 -55 14 -27 6 -55 18 -55 25 0 5 7 14 15 21 8 7 12 16 9 21 -3 5
0 9 5 9 6 0 11 5 11 11 0 5 13 36 29 68 23 46 79 196 73 196 -1 0 5 21 13 48
8 26 11 47 6 47 -9 0 -89 -136 -124 -211 -14 -30 -37 -88 -50 -128 -14 -39
-27 -74 -29 -77 -3 -2 -38 3 -79 12 -75 16 -100 20 -132 23 -33 2 -29 29 10
69 56 58 94 101 133 152 19 25 42 50 50 57 8 7 11 13 7 13 -4 0 2 10 13 23 26
28 112 147 106 147 -13 0 -227 -207 -308 -299 -21 -23 -39 -40 -39 -39 -1 2
-2 17 -4 33 -1 17 -5 57 -9 90 -6 53 -9 74 -20 135 -10 57 -30 130 -36 130 -4
0 -6 -80 -3 -177 4 -203 4 -203 12 -203 8 0 5 -71 -4 -93 -7 -18 -42 -18 -127
-2 -10 2 -54 7 -96 11 -42 4 -90 8 -107 10 -47 6 -251 16 -348 18 l-87 1 -38
75 c-44 88 -62 117 -82 139 -8 9 -35 39 -59 66 -41 47 -43 48 -37 20 4 -16 23
-61 42 -100 31 -64 48 -90 111 -172 l21 -29 -106 -3 c-59 -1 -129 -4 -157 -6
-127 -9 -203 -15 -242 -19 -36 -4 -44 -2 -59 22 -20 29 -45 72 -66 112 -7 14
-21 34 -30 44 -10 11 -18 23 -18 27 0 4 -28 50 -62 101 -68 100 -68 100 -98
138 l-20 25 16 -40z"/>
<path d="M9859 8316 c-2 -2 -22 -7 -44 -10 -88 -13 -111 -18 -122 -28 -7 -6
-13 -8 -13 -5 0 9 -71 -18 -160 -60 -79 -37 -101 -55 -57 -48 12 3 42 7 67 9
25 3 64 12 88 20 23 8 43 15 45 15 18 -2 183 79 198 97 10 13 9 20 -2 10z"/>
</g>
</svg>
